<svg width="1590" height="1411" viewBox="0 0 1590 1411" fill="none" xmlns="http://www.w3.org/2000/svg">
<rect width="1590" height="1411" fill="#1E1E1E"/>
<g filter="url(#filter0_di_0_1)">
<g clip-path="url(#clip0_0_1)">
<rect x="95" y="35" width="1440" height="1261" rx="48" fill="#000211"/>
<g filter="url(#filter1_f_0_1)">
<path d="M1407.74 917.407C1452.87 880.833 1471.32 840.787 1461.38 800.989C1451.44 761.192 1413.43 722.936 1350.89 689.778C1288.34 656.619 1203.29 629.634 1103.64 611.331C1003.99 593.028 892.966 584 780.899 585.088C668.832 586.175 559.355 597.343 462.644 617.551C365.934 637.76 285.128 666.355 227.739 700.677C170.349 735 138.239 773.936 134.392 813.867C130.545 853.798 155.086 893.428 205.734 929.072L799 822L1407.74 917.407Z" fill="url(#paint0_radial_0_1)"/>
</g>
<rect x="651" y="599" width="1" height="1" rx="0.5" fill="#D9D9D9"/>
<rect x="721" y="706" width="1" height="1" rx="0.5" fill="#D9D9D9"/>
<rect x="901" y="615" width="1" height="1" rx="0.5" fill="#D9D9D9"/>
<rect x="867" y="676" width="1" height="1" rx="0.5" fill="#D9D9D9"/>
<rect x="873" y="766" width="1" height="1" rx="0.5" fill="#D9D9D9"/>
<rect x="441" y="745" width="1" height="1" rx="0.5" fill="#D9D9D9" fill-opacity="0.25"/>
<rect x="442" y="696" width="1" height="1" rx="0.5" fill="#D9D9D9" fill-opacity="0.25"/>
<rect x="513" y="649" width="1" height="1" rx="0.5" fill="#D9D9D9" fill-opacity="0.8"/>
<rect x="378" y="690" width="1" height="1" rx="0.5" fill="#D9D9D9" fill-opacity="0.1"/>
<rect x="379" y="783" width="1" height="1" rx="0.5" fill="#D9D9D9" fill-opacity="0.8"/>
<rect x="454" y="634" width="1" height="1" rx="0.5" fill="#D9D9D9" fill-opacity="0.8"/>
<rect x="677" y="785" width="1" height="1" rx="0.5" fill="#D9D9D9"/>
<rect x="584" y="767" width="1" height="1" rx="0.5" fill="#D9D9D9" fill-opacity="0.6"/>
<rect x="982" y="746" width="1" height="1" rx="0.5" fill="#D9D9D9" fill-opacity="0.1"/>
<rect x="1018" y="714" width="1" height="1" rx="0.5" fill="#D9D9D9" fill-opacity="0.1"/>
<rect x="929" y="691" width="5" height="5" rx="2.5" fill="#D9D9D9" fill-opacity="0.7"/>
<rect x="994" y="654" width="5" height="5" rx="2.5" fill="#D9D9D9" fill-opacity="0.75"/>
<rect x="767" y="580" width="5" height="5" rx="2.5" fill="#D9D9D9" fill-opacity="0.8"/>
<rect x="746" y="740" width="5" height="5" rx="2.5" fill="#D9D9D9" fill-opacity="0.72"/>
<rect x="841" y="722" width="5" height="5" rx="2.5" fill="#D9D9D9" fill-opacity="0.5"/>
<rect x="1061" y="707" width="5" height="5" rx="2.5" fill="#D9D9D9" fill-opacity="0.1"/>
<rect x="1013" y="735" width="5" height="5" rx="2.5" fill="#D9D9D9" fill-opacity="0.75"/>
<rect x="1063" y="658" width="5" height="5" rx="2.5" fill="#D9D9D9" fill-opacity="0.1"/>
<rect x="1025" y="615" width="5" height="5" rx="2.5" fill="#D9D9D9" fill-opacity="0.8"/>
<rect x="1078" y="780" width="5" height="5" rx="2.5" fill="#D9D9D9"/>
<rect x="541" y="712" width="5" height="5" rx="2.5" fill="#D9D9D9"/>
<rect x="568" y="650" width="5" height="5" rx="2.5" fill="#D9D9D9"/>
<rect x="526" y="599" width="5" height="5" rx="2.5" fill="#D9D9D9"/>
<rect x="526" y="599" width="5" height="5" rx="2.5" fill="#D9D9D9" fill-opacity="0.5"/>
<rect x="674" y="544" width="5" height="5" rx="2.5" fill="#D9D9D9" fill-opacity="0.8"/>
<rect x="626" y="692" width="1" height="1" rx="0.5" fill="#D9D9D9"/>
<rect x="678" y="635" width="1" height="1" rx="0.5" fill="#D9D9D9"/>
<rect x="739" y="650" width="1" height="1" rx="0.5" fill="#D9D9D9"/>
<rect x="799" y="715" width="1" height="1" rx="0.5" fill="#D9D9D9"/>
<rect x="772" y="658" width="1" height="1" rx="0.5" fill="#D9D9D9" fill-opacity="0.55"/>
<rect x="815" y="636" width="1" height="1" rx="0.5" fill="#D9D9D9" fill-opacity="0.55"/>
<rect x="772" y="617" width="1" height="1" rx="0.5" fill="#D9D9D9" fill-opacity="0.8"/>
<rect x="681" y="669" width="1" height="1" rx="0.5" fill="#D9D9D9"/>
</g>
</g>
<mask id="path-41-inside-1_0_1" fill="white">
<path d="M1518 1018.65C1518 1149.9 1204.38 1256.3 817.5 1256.3C430.625 1256.3 117 1149.9 117 1018.65C117 887.399 430.625 781 817.5 781C1204.38 781 1518 887.399 1518 1018.65Z"/>
</mask>
<path d="M1518 1018.65C1518 1149.9 1204.38 1256.3 817.5 1256.3C430.625 1256.3 117 1149.9 117 1018.65C117 887.399 430.625 781 817.5 781C1204.38 781 1518 887.399 1518 1018.65Z" fill="#000211"/>
<path d="M1514 1018.65C1514 1049.74 1495.43 1079.97 1460.45 1108.03C1425.5 1136.06 1374.69 1161.48 1311.54 1182.9C1185.29 1225.74 1010.62 1252.3 817.5 1252.3V1260.3C1011.25 1260.3 1186.83 1233.66 1314.11 1190.48C1377.73 1168.9 1429.51 1143.11 1465.45 1114.27C1501.36 1085.47 1522 1053.18 1522 1018.65H1514ZM817.5 1252.3C624.379 1252.3 449.708 1225.74 323.457 1182.9C260.311 1161.48 209.498 1136.06 174.552 1108.03C139.568 1079.97 121 1049.74 121 1018.65H113C113 1053.18 133.635 1085.47 169.546 1114.27C205.494 1143.11 257.267 1168.9 320.887 1190.48C448.167 1233.66 623.746 1260.3 817.5 1260.3V1252.3ZM121 1018.65C121 987.557 139.568 957.326 174.552 929.265C209.498 901.235 260.311 875.816 323.457 854.394C449.708 811.562 624.379 785 817.5 785V777C623.746 777 448.167 803.637 320.887 846.818C257.267 868.401 205.494 894.191 169.546 923.025C133.635 951.828 113 984.116 113 1018.65H121ZM817.5 785C1010.62 785 1185.29 811.562 1311.54 854.394C1374.69 875.816 1425.5 901.235 1460.45 929.265C1495.43 957.326 1514 987.557 1514 1018.65H1522C1522 984.116 1501.36 951.828 1465.45 923.025C1429.51 894.191 1377.73 868.401 1314.11 846.818C1186.83 803.637 1011.25 777 817.5 777V785Z" fill="url(#paint1_radial_0_1)" mask="url(#path-41-inside-1_0_1)"/>
<defs>
<filter id="filter0_di_0_1" x="0" y="0" width="1590" height="1411" filterUnits="userSpaceOnUse" color-interpolation-filters="sRGB">
<feFlood flood-opacity="0" result="BackgroundImageFix"/>
<feColorMatrix in="SourceAlpha" type="matrix" values="0 0 0 0 0 0 0 0 0 0 0 0 0 0 0 0 0 0 127 0" result="hardAlpha"/>
<feOffset dx="-20" dy="40"/>
<feGaussianBlur stdDeviation="37.5"/>
<feComposite in2="hardAlpha" operator="out"/>
<feColorMatrix type="matrix" values="0 0 0 0 1 0 0 0 0 1 0 0 0 0 1 0 0 0 0.25 0"/>
<feBlend mode="hard-light" in2="BackgroundImageFix" result="effect1_dropShadow_0_1"/>
<feBlend mode="normal" in="SourceGraphic" in2="effect1_dropShadow_0_1" result="shape"/>
<feColorMatrix in="SourceAlpha" type="matrix" values="0 0 0 0 0 0 0 0 0 0 0 0 0 0 0 0 0 0 127 0" result="hardAlpha"/>
<feOffset dy="6"/>
<feGaussianBlur stdDeviation="12.5"/>
<feComposite in2="hardAlpha" operator="arithmetic" k2="-1" k3="1"/>
<feColorMatrix type="matrix" values="0 0 0 0 1 0 0 0 0 1 0 0 0 0 1 0 0 0 0.25 0"/>
<feBlend mode="lighten" in2="shape" result="effect2_innerShadow_0_1"/>
</filter>
<filter id="filter1_f_0_1" x="-66.0001" y="385" width="1730" height="744.072" filterUnits="userSpaceOnUse" color-interpolation-filters="sRGB">
<feFlood flood-opacity="0" result="BackgroundImageFix"/>
<feBlend mode="normal" in="SourceGraphic" in2="BackgroundImageFix" result="shape"/>
<feGaussianBlur stdDeviation="100" result="effect1_foregroundBlur_0_1"/>
</filter>
<radialGradient id="paint0_radial_0_1" cx="0" cy="0" r="1" gradientUnits="userSpaceOnUse" gradientTransform="translate(799 706.321) rotate(90) scale(352.679 989.583)">
<stop stop-color="#4F1ABE"/>
<stop offset="1" stop-color="#24214B" stop-opacity="0"/>
</radialGradient>
<radialGradient id="paint1_radial_0_1" cx="0" cy="0" r="1" gradientUnits="userSpaceOnUse" gradientTransform="translate(817.5 781) rotate(90) scale(219.851 702.172)">
<stop stop-color="#6229BF"/>
<stop offset="1" stop-opacity="0"/>
</radialGradient>
<clipPath id="clip0_0_1">
<rect x="95" y="35" width="1440" height="1261" rx="48" fill="white"/>
</clipPath>
</defs>
</svg>
